<svg version="1.1" id="Layer_1" xmlns="http://www.w3.org/2000/svg" xmlns:xlink="http://www.w3.org/1999/xlink" x="0px" y="0px"
	 viewBox="0 0 437.3 114.9" style="enable-background:new 0 0 437.3 114.9;" xml:space="preserve">
<g>
	<path fill="#FFFFFF"  d="M47.9,60H32l-2.6,7.7H18.5l15.5-42.1h11.8l15.5,42.1H50.5L47.9,60z M45.2,52.2l-5.3-15.6l-5.3,15.6H45.2z"/>
	<path fill="#FFFFFF"  d="M87.2,67.8l-9.2-16h-2.3v16H65.4V25.3h17.5c3.4,0,6.2,0.6,8.5,1.7c2.3,1.2,4.1,2.8,5.2,4.8c1.2,2,1.7,4.3,1.7,6.9
		c0,3.1-0.9,5.7-2.5,7.9c-1.7,2.2-4.2,3.6-7.4,4.4l10.1,16.7H87.2z M75.6,44.7H82c2,0,3.5-0.5,4.5-1.4s1.4-2.2,1.4-4
		c0-1.7-0.5-3-1.5-4c-1-1-2.5-1.4-4.5-1.4h-6.4V44.7z"/>
	<path fill="#FFFFFF"  d="M134,25.3v8.2h-11.5v34.3h-10.3V33.5h-11.4v-8.2H134z"/>
	<path fill="#FFFFFF"  d="M160.6,52.9v14.9h-10.3V25.3H167c5,0,8.9,1.3,11.5,3.8c2.6,2.5,4,5.9,4,10.1c0,2.6-0.6,5-1.8,7.1c-1.2,2.1-2.9,3.7-5.2,4.9
		c-2.3,1.2-5.1,1.8-8.5,1.8H160.6z M172,39.2c0-3.7-2.1-5.6-6.2-5.6h-5.2v11h5.2C169.9,44.7,172,42.8,172,39.2z"/>
	<path fill="#FFFFFF"  d="M197.7,59.9h13.7v7.9h-23.9V25.3h10.3V59.9z"/>
	<path fill="#FFFFFF"  d="M226.1,25.3v24.5c0,2.8,0.6,4.9,1.9,6.4c1.3,1.5,3.1,2.2,5.5,2.2c2.4,0,4.2-0.7,5.5-2.2c1.3-1.5,1.9-3.6,1.9-6.4V25.3h10.3
		v24.5c0,4-0.8,7.4-2.3,10.1c-1.6,2.7-3.7,4.8-6.4,6.2s-5.8,2.1-9.2,2.1c-3.4,0-6.4-0.7-9-2c-2.6-1.4-4.6-3.4-6.1-6.2
		c-1.5-2.8-2.2-6.1-2.2-10.1V25.3H226.1z"/>
	<path fill="#FFFFFF"  d="M291,28.8c3.4,2.6,5.6,6.1,6.4,10.6h-10.9c-0.7-1.5-1.8-2.7-3.3-3.6c-1.5-0.9-3.3-1.4-5.3-1.4c-3.2,0-5.8,1.1-7.8,3.3
		c-2,2.2-2.9,5.1-2.9,8.8c0,4,1,7.1,3.1,9.3s5,3.2,8.8,3.2c2.4,0,4.6-0.7,6.4-2c1.8-1.3,3.1-3.2,3.9-5.7h-13v-7.4h21.5v10.1
		c-0.8,2.5-2.1,4.8-3.8,6.9c-1.8,2.1-4,3.8-6.8,5.2c-2.7,1.3-5.9,2-9.4,2c-4.3,0-8-0.9-11.2-2.7c-3.2-1.8-5.7-4.4-7.4-7.6
		c-1.7-3.3-2.6-7-2.6-11.2c0-4.2,0.9-7.9,2.6-11.2c1.7-3.3,4.2-5.8,7.4-7.6c3.2-1.8,6.9-2.7,11.1-2.7
		C283.2,24.9,287.5,26.2,291,28.8z"/>
	<path fill="#FFFFFF"  d="M336.7,28.8c3.4,2.6,5.6,6.1,6.4,10.6h-10.9c-0.7-1.5-1.8-2.7-3.3-3.6c-1.5-0.9-3.3-1.4-5.3-1.4c-3.2,0-5.8,1.1-7.8,3.3
		c-2,2.2-2.9,5.1-2.9,8.8c0,4,1,7.1,3.1,9.3s5,3.2,8.8,3.2c2.4,0,4.6-0.7,6.4-2c1.8-1.3,3.1-3.2,3.9-5.7h-13v-7.4h21.5v10.1
		c-0.8,2.5-2.1,4.8-3.8,6.9c-1.8,2.1-4,3.8-6.8,5.2c-2.7,1.3-5.9,2-9.4,2c-4.3,0-8-0.9-11.2-2.7c-3.2-1.8-5.7-4.4-7.4-7.6
		c-1.7-3.3-2.6-7-2.6-11.2c0-4.2,0.9-7.9,2.6-11.2c1.7-3.3,4.2-5.8,7.4-7.6c3.2-1.8,6.9-2.7,11.1-2.7
		C328.9,24.9,333.3,26.2,336.7,28.8z"/>
	<path fill="#FFFFFF"  d="M359.7,33.5v8.9H374v7.7h-14.3v9.4h16.1v8.2h-26.4V25.3h26.4v8.2H359.7z"/>
	<path fill="#FFFFFF"  d="M417.1,57.5c-1.8,3.2-4.3,5.7-7.7,7.5c-3.3,1.8-7.3,2.7-11.8,2.7h-16V25.3h16c4.6,0,8.5,0.9,11.8,2.6
		c3.3,1.8,5.9,4.2,7.7,7.4c1.8,3.2,2.7,6.9,2.7,11C419.8,50.6,418.9,54.3,417.1,57.5z M406.1,55.4c2.2-2.1,3.3-5.1,3.3-8.9
		c0-3.8-1.1-6.8-3.3-8.9c-2.2-2.1-5.3-3.2-9.3-3.2h-4.9v24.2h4.9C400.8,58.6,403.9,57.5,406.1,55.4z"/>
	<path fill="#FFFFFF"  d="M32.5,93h-3.6l-6-9.1V93h-3.6V78.1h3.6l6,9.2v-9.2h3.6V93z"/>
	<path fill="#FFFFFF"  d="M38.5,81v3.1h5v2.7h-5v3.3h5.6V93h-9.2V78.1h9.2V81H38.5z"/>
	<path fill="#FFFFFF"  d="M56.9,78.1V81h-4v12h-3.6V81h-4v-2.9H56.9z"/>
	<path fill="#FFFFFF"  d="M78.6,78.1L75,93h-4.5L68.2,83L65.8,93h-4.5l-3.5-14.8h3.9l1.9,10.8l2.6-10.8h3.9l2.6,10.8l1.9-10.8H78.6z"/>
	<path fill="#FFFFFF"  d="M91.3,78.9c1.1,0.7,2,1.6,2.7,2.7c0.7,1.2,1,2.5,1,3.9s-0.3,2.8-1,3.9s-1.6,2.1-2.7,2.7s-2.4,1-3.8,1c-1.4,0-2.6-0.3-3.8-1
		s-2-1.6-2.7-2.7s-1-2.5-1-3.9s0.3-2.8,1-3.9c0.7-1.2,1.6-2.1,2.7-2.7s2.4-1,3.8-1C88.9,77.9,90.2,78.2,91.3,78.9z M84.7,82.4
		c-0.7,0.8-1,1.8-1,3.1c0,1.3,0.3,2.3,1,3.1c0.7,0.8,1.6,1.2,2.8,1.2c1.2,0,2.1-0.4,2.8-1.2c0.7-0.8,1.1-1.8,1.1-3.1
		c0-1.3-0.3-2.3-1-3.1c-0.7-0.8-1.6-1.2-2.8-1.2C86.4,81.2,85.4,81.6,84.7,82.4z"/>
	<path fill="#FFFFFF"  d="M104.7,93l-3.2-5.6h-0.8V93H97V78.1h6.1c1.2,0,2.2,0.2,3,0.6c0.8,0.4,1.4,1,1.8,1.7c0.4,0.7,0.6,1.5,0.6,2.4
		c0,1.1-0.3,2-0.9,2.8c-0.6,0.8-1.5,1.3-2.6,1.6l3.5,5.8H104.7z M100.6,84.9h2.2c0.7,0,1.2-0.2,1.6-0.5s0.5-0.8,0.5-1.4
		c0-0.6-0.2-1-0.5-1.4c-0.3-0.3-0.9-0.5-1.6-0.5h-2.2V84.9z"/>
	<path fill="#FFFFFF"  d="M117.4,85.4l6,7.6H119l-5-6.7V93h-3.6V78.1h3.6v6.5l5.1-6.5h4.3L117.4,85.4z"/>
</g>
</svg>