<svg width="30" height="30" viewBox="0 0 71 48" fill="none" xmlns="http://www.w3.org/2000/svg">
<path fill-rule="evenodd" clip-rule="evenodd" d="M35.1334 33.4539C35.4384 33.9793 35.4154 34.6386 35.0748 35.1405L27.707 45.9952C27.0719 46.9307 25.7031 46.8767 25.1404 45.8938L0.211103 2.34841C-0.384207 1.30855 0.348485 0 1.52604 0H14.8483C15.386 0 15.8839 0.290013 16.1586 0.763164L35.1334 33.4539ZM70.7896 45.6533C71.3832 46.6931 70.6504 48 69.4737 48H56.2328C55.6918 48 55.1913 47.7065 54.9178 47.2287L29.2243 2.34841C28.629 1.30855 29.3617 0 30.5393 0H43.8542C44.3958 0 44.8968 0.29427 45.1701 0.772959L70.7896 45.6533ZM10.7223 47.5755C11.9035 47.5755 12.6357 46.2596 12.033 45.2198L2.89783 29.4588C2.10716 28.0946 0.0630416 28.6685 0.0630416 30.2546V46.0157C0.0630416 46.8772 0.745376 47.5755 1.58708 47.5755H10.7223Z" fill="black"/>
</svg>
