<svg version="1.1" id="Layer_1" xmlns="http://www.w3.org/2000/svg" xmlns:xlink="http://www.w3.org/1999/xlink" x="0px" y="0px"
	 viewBox="0 0 30 30" style="enable-background:new 0 0 30 30;" xml:space="preserve" height="30" width="30">
<path d="M25.1,12.3c-0.2-0.2-0.4-0.3-0.7-0.3H0.5c-0.4,0-0.7,0.5-0.3,0.9l4.7,4.8C5.1,17.9,5.3,18,5.6,18h23.9
	c0.4,0,0.7-0.5,0.3-0.9L25.1,12.3z"/>
<path d="M4.9,21.3C5.1,21.1,5.3,21,5.6,21h23.9c0.4,0,0.7,0.5,0.3,0.9l-4.7,4.8c-0.2,0.2-0.4,0.3-0.7,0.3H0.5
	c-0.4,0-0.7-0.5-0.3-0.9L4.9,21.3z"/>
<path d="M4.9,3.3C5.1,3.1,5.3,3,5.6,3h23.9c0.4,0,0.7,0.5,0.3,0.9l-4.7,4.8C24.9,8.9,24.7,9,24.4,9H0.5C0.1,9-0.2,8.4,0.1,8.1
	L4.9,3.3z"/>
</svg>